<svg width="197" height="36" viewBox="0 0 197 36" fill="none" xmlns="http://www.w3.org/2000/svg">
<path d="M0.586337 28V2.54545H10.3307C12.1701 2.54545 13.6989 2.83546 14.9169 3.41548C16.1433 3.98722 17.0589 4.77024 17.6638 5.76456C18.2769 6.75888 18.5835 7.88577 18.5835 9.14524C18.5835 10.181 18.3846 11.0676 17.9869 11.805C17.5892 12.5342 17.0547 13.1267 16.3836 13.5824C15.7124 14.0381 14.9625 14.3654 14.1339 14.5643V14.8129C15.0371 14.8626 15.903 15.1402 16.7316 15.6456C17.5685 16.1428 18.2521 16.8471 18.7824 17.7585C19.3127 18.67 19.5778 19.772 19.5778 21.0646C19.5778 22.3821 19.2588 23.567 18.6208 24.6193C17.9828 25.6634 17.0216 26.4878 15.7373 27.0927C14.4529 27.6976 12.8372 28 10.89 28H0.586337ZM5.19749 24.147H10.1566C11.8304 24.147 13.036 23.828 13.7735 23.19C14.5192 22.5437 14.8921 21.7151 14.8921 20.7042C14.8921 19.9502 14.7057 19.2707 14.3328 18.6658C13.9599 18.0527 13.4296 17.5721 12.7419 17.2241C12.0541 16.8678 11.2338 16.6896 10.2809 16.6896H5.19749V24.147ZM5.19749 13.3711H9.75892C10.5544 13.3711 11.2711 13.2261 11.9091 12.9361C12.5472 12.6378 13.0485 12.2193 13.413 11.6808C13.7859 11.1339 13.9723 10.4876 13.9723 9.74183C13.9723 8.7558 13.6243 7.94377 12.9283 7.30575C12.2406 6.66773 11.2173 6.34872 9.85835 6.34872H5.19749V13.3711ZM31.7178 28.3729C29.8535 28.3729 28.2377 27.9627 26.8705 27.1424C25.5033 26.3221 24.4427 25.1745 23.6887 23.6996C22.943 22.2247 22.5701 20.5012 22.5701 18.5291C22.5701 16.5571 22.943 14.8294 23.6887 13.3462C24.4427 11.863 25.5033 10.7113 26.8705 9.89098C28.2377 9.07067 29.8535 8.66051 31.7178 8.66051C33.5822 8.66051 35.1979 9.07067 36.5651 9.89098C37.9323 10.7113 38.9888 11.863 39.7345 13.3462C40.4885 14.8294 40.8655 16.5571 40.8655 18.5291C40.8655 20.5012 40.4885 22.2247 39.7345 23.6996C38.9888 25.1745 37.9323 26.3221 36.5651 27.1424C35.1979 27.9627 33.5822 28.3729 31.7178 28.3729ZM31.7427 24.7685C32.7536 24.7685 33.5987 24.4909 34.2782 23.9357C34.9576 23.3723 35.4631 22.6183 35.7945 21.6737C36.1342 20.729 36.3041 19.6767 36.3041 18.5167C36.3041 17.3484 36.1342 16.2919 35.7945 15.3473C35.4631 14.3944 34.9576 13.6362 34.2782 13.0728C33.5987 12.5094 32.7536 12.2276 31.7427 12.2276C30.7069 12.2276 29.8452 12.5094 29.1574 13.0728C28.478 13.6362 27.9684 14.3944 27.6287 15.3473C27.2972 16.2919 27.1315 17.3484 27.1315 18.5167C27.1315 19.6767 27.2972 20.729 27.6287 21.6737C27.9684 22.6183 28.478 23.3723 29.1574 23.9357C29.8452 24.4909 30.7069 24.7685 31.7427 24.7685ZM49.1836 16.8139V28H44.6843V8.90909H48.9848V12.1531H49.2085C49.6477 11.0842 50.3478 10.2348 51.309 9.60511C52.2785 8.97538 53.4758 8.66051 54.901 8.66051C56.2184 8.66051 57.366 8.94223 58.3438 9.50568C59.3298 10.0691 60.0921 10.8853 60.6307 11.9542C61.1776 13.0231 61.4469 14.3198 61.4386 15.8445V28H56.9393V16.5405C56.9393 15.2644 56.6079 14.266 55.945 13.5451C55.2904 12.8242 54.3831 12.4638 53.2231 12.4638C52.4359 12.4638 51.7357 12.6378 51.1226 12.9858C50.5177 13.3255 50.0412 13.8185 49.6932 14.4648C49.3535 15.1112 49.1836 15.8942 49.1836 16.8139ZM78.1618 28H73.2399L82.2012 2.54545H87.8937L96.8674 28H91.9455L85.1469 7.76562H84.948L78.1618 28ZM78.3234 18.0195H91.7467V21.7234H78.3234V18.0195ZM100.021 35.1591V8.90909H104.446V12.0661H104.707C104.939 11.602 105.266 11.109 105.689 10.587C106.111 10.0567 106.683 9.60511 107.404 9.23224C108.125 8.85109 109.045 8.66051 110.163 8.66051C111.638 8.66051 112.968 9.03752 114.153 9.79155C115.346 10.5373 116.291 11.6435 116.987 13.1101C117.691 14.5684 118.043 16.3582 118.043 18.4794C118.043 20.5758 117.699 22.3572 117.012 23.8239C116.324 25.2905 115.388 26.4091 114.203 27.1797C113.018 27.9503 111.676 28.3356 110.176 28.3356C109.082 28.3356 108.175 28.1533 107.454 27.7887C106.733 27.4241 106.153 26.985 105.714 26.4712C105.283 25.9492 104.947 25.4562 104.707 24.9922H104.521V35.1591H100.021ZM104.434 18.4545C104.434 19.6892 104.608 20.7705 104.956 21.6985C105.312 22.6265 105.821 23.3516 106.484 23.8736C107.155 24.3873 107.968 24.6442 108.92 24.6442C109.915 24.6442 110.747 24.379 111.419 23.8487C112.09 23.3101 112.595 22.5768 112.935 21.6488C113.283 20.7125 113.457 19.6477 113.457 18.4545C113.457 17.2696 113.287 16.2173 112.947 15.2976C112.608 14.3778 112.102 13.657 111.431 13.1349C110.76 12.6129 109.923 12.3519 108.92 12.3519C107.959 12.3519 107.143 12.6046 106.472 13.1101C105.801 13.6155 105.291 14.324 104.943 15.2354C104.603 16.1469 104.434 17.2199 104.434 18.4545ZM121.896 35.1591V8.90909H126.321V12.0661H126.582C126.814 11.602 127.141 11.109 127.564 10.587C127.986 10.0567 128.558 9.60511 129.279 9.23224C130 8.85109 130.92 8.66051 132.038 8.66051C133.513 8.66051 134.843 9.03752 136.028 9.79155C137.221 10.5373 138.166 11.6435 138.862 13.1101C139.566 14.5684 139.918 16.3582 139.918 18.4794C139.918 20.5758 139.574 22.3572 138.887 23.8239C138.199 25.2905 137.263 26.4091 136.078 27.1797C134.893 27.9503 133.551 28.3356 132.051 28.3356C130.957 28.3356 130.05 28.1533 129.329 27.7887C128.608 27.4241 128.028 26.985 127.589 26.4712C127.158 25.9492 126.822 25.4562 126.582 24.9922H126.396V35.1591H121.896ZM126.309 18.4545C126.309 19.6892 126.483 20.7705 126.831 21.6985C127.187 22.6265 127.696 23.3516 128.359 23.8736C129.03 24.3873 129.843 24.6442 130.795 24.6442C131.79 24.6442 132.622 24.379 133.294 23.8487C133.965 23.3101 134.47 22.5768 134.81 21.6488C135.158 20.7125 135.332 19.6477 135.332 18.4545C135.332 17.2696 135.162 16.2173 134.822 15.2976C134.483 14.3778 133.977 13.657 133.306 13.1349C132.635 12.6129 131.798 12.3519 130.795 12.3519C129.834 12.3519 129.018 12.6046 128.347 13.1101C127.676 13.6155 127.166 14.324 126.818 15.2354C126.478 16.1469 126.309 17.2199 126.309 18.4545ZM152.223 28.3729C150.309 28.3729 148.656 27.9751 147.264 27.1797C145.88 26.3759 144.815 25.2408 144.07 23.7741C143.324 22.2992 142.951 20.5633 142.951 18.5664C142.951 16.6026 143.324 14.8791 144.07 13.396C144.824 11.9045 145.876 10.7444 147.227 9.91584C148.577 9.07895 150.164 8.66051 151.987 8.66051C153.163 8.66051 154.274 8.85109 155.318 9.23224C156.37 9.60511 157.298 10.1851 158.102 10.9723C158.914 11.7595 159.552 12.7621 160.016 13.9801C160.48 15.1899 160.712 16.6316 160.712 18.3054V19.685H145.064V16.6523H156.399C156.391 15.7906 156.204 15.0241 155.84 14.353C155.475 13.6735 154.966 13.1391 154.311 12.7496C153.665 12.3602 152.911 12.1655 152.049 12.1655C151.129 12.1655 150.321 12.3892 149.625 12.8366C148.929 13.2758 148.387 13.8558 147.997 14.5767C147.616 15.2893 147.421 16.0723 147.413 16.9258V19.5732C147.413 20.6835 147.616 21.6364 148.022 22.4318C148.428 23.219 148.996 23.8239 149.725 24.2464C150.454 24.6607 151.307 24.8679 152.285 24.8679C152.94 24.8679 153.532 24.7768 154.062 24.5945C154.593 24.4039 155.053 24.1263 155.442 23.7617C155.832 23.3971 156.126 22.9455 156.325 22.407L160.526 22.8793C160.26 23.9896 159.755 24.959 159.009 25.7876C158.272 26.608 157.327 27.246 156.175 27.7017C155.024 28.1491 153.706 28.3729 152.223 28.3729ZM150.135 6.39844L152.919 0.718395H157.319L153.503 6.39844H150.135ZM174.051 8.90909V12.3892H163.077V8.90909H174.051ZM165.786 4.33523H170.285V22.2578C170.285 22.8627 170.377 23.3267 170.559 23.6499C170.749 23.9647 170.998 24.1802 171.305 24.2962C171.611 24.4122 171.951 24.4702 172.324 24.4702C172.605 24.4702 172.862 24.4495 173.094 24.408C173.335 24.3666 173.517 24.3293 173.641 24.2962L174.399 27.8136C174.159 27.8964 173.815 27.9876 173.368 28.087C172.929 28.1864 172.39 28.2444 171.752 28.261C170.625 28.2942 169.61 28.1243 168.707 27.7514C167.804 27.3703 167.087 26.782 166.557 25.9865C166.035 25.1911 165.778 24.1967 165.786 23.0036V4.33523ZM177.814 28V8.90909H182.314V28H177.814ZM180.076 6.19957C179.364 6.19957 178.751 5.96342 178.237 5.49112C177.723 5.01053 177.466 4.43466 177.466 3.76349C177.466 3.08404 177.723 2.50817 178.237 2.03586C178.751 1.55528 179.364 1.31499 180.076 1.31499C180.797 1.31499 181.41 1.55528 181.916 2.03586C182.43 2.50817 182.686 3.08404 182.686 3.76349C182.686 4.43466 182.43 5.01053 181.916 5.49112C181.41 5.96342 180.797 6.19957 180.076 6.19957ZM196.473 8.90909V12.3892H185.498V8.90909H196.473ZM188.208 4.33523H192.707V22.2578C192.707 22.8627 192.798 23.3267 192.981 23.6499C193.171 23.9647 193.42 24.1802 193.726 24.2962C194.033 24.4122 194.373 24.4702 194.746 24.4702C195.027 24.4702 195.284 24.4495 195.516 24.408C195.756 24.3666 195.939 24.3293 196.063 24.2962L196.821 27.8136C196.581 27.8964 196.237 27.9876 195.79 28.087C195.35 28.1864 194.812 28.2444 194.174 28.261C193.047 28.2942 192.032 28.1243 191.129 27.7514C190.226 27.3703 189.509 26.782 188.979 25.9865C188.457 25.1911 188.2 24.1967 188.208 23.0036V4.33523Z" fill="#FF4A22"/>
</svg>
